<?xml version="1.0" encoding="UTF-8" standalone="no"?>
<svg width="419px" height="419px" viewBox="0 0 419 419" version="1.1" xmlns="http://www.w3.org/2000/svg" xmlns:xlink="http://www.w3.org/1999/xlink">
    <!-- Generator: Sketch 41 (35326) - http://www.bohemiancoding.com/sketch -->
    <title>ColorPicker</title>
    <desc>Created with Sketch.</desc>
    <defs>
        <circle id="path-1" cx="199.5" cy="199.5" r="199.5"></circle>
        <rect id="path-3" x="0" y="0" width="202.604247" height="101.511134" rx="10"></rect>
    </defs>
    <g id="Page-1" stroke="none" stroke-width="1" fill="none" fill-rule="evenodd">
        <g id="ColorPicker">
            <circle id="Oval-2" fill="#50514F" cx="209.5" cy="209.5" r="209.5"></circle>
            <g id="fontSection" transform="translate(10.000000, 10.000000)">
                <mask id="mask-2" fill="white">
                    <use xlink:href="#path-1"></use>
                </mask>
                <use id="Mask" fill="#68A1E5" xlink:href="#path-1"></use>
                <g id="colorSection" mask="url(#mask-2)">
                    <g transform="translate(28.000000, 102.000000)">
                        <g id="Group-2" transform="translate(38.500000, 165.000000) rotate(90.000000) translate(-38.500000, -165.000000) translate(-126.500000, 126.500000)">
                            <g id="type">
                                <path d="M2.84217094e-14,9.99222068 C2.84217094e-14,4.47366958 4.48226712,0 9.99920344,0 L319.232697,0 C324.755105,0 329.231901,4.47825413 329.231901,9.99222068 L329.231901,66.1411295 C329.231901,71.6596806 324.749634,76.1333502 319.232697,76.1333502 L9.99920344,76.1333502 C4.47679587,76.1333502 2.84217094e-14,71.6550961 2.84217094e-14,66.1411295 L2.84217094e-14,9.99222068 Z" id="Rectangle" fill="#FFFFFF" opacity="0.99000001"></path>
                                <rect id="Rectangle-2" fill="#797979" x="12.6627654" y="12.6888917" width="50.6510617" height="50.7555668" rx="5"></rect>
                                <rect id="Rectangle-2" fill="#F68F9C" x="77.242869" y="12.6888917" width="50.6510617" height="50.7555668" rx="5"></rect>
                                <rect id="Rectangle-2" fill="#DDDDDD" x="139.29042" y="12.6888917" width="50.6510617" height="50.7555668" rx="5"></rect>
                                <rect id="Rectangle-2" fill="#FFBE53" x="202.604247" y="12.6888917" width="50.6510617" height="50.7555668" rx="5"></rect>
                                <rect id="Rectangle-2" fill="#72A6E2" x="265.918074" y="12.6888917" width="50.6510617" height="50.7555668" rx="5"></rect>
                            </g>
                        </g>
                        <g id="pickbox" transform="translate(84.000000, 24.000000)">
                            <path d="M14.7421494,9.99051392 C14.7421494,4.47290544 19.2183687,0 24.7480613,0 L257.991546,0 C263.517658,0 267.997458,4.48474398 267.997458,9.99775355 L267.997458,219.671186 C267.997458,225.192793 263.521238,229.66894 257.991546,229.66894 L24.7480613,229.66894 C19.2219488,229.66894 14.7421494,225.191276 14.7421494,219.663234 L14.7421494,149.059202 C14.7421494,149.059202 0,143.506279 0,140.718467 C0,137.930655 14.7421494,131.127876 14.7421494,131.127876 L14.7421494,9.99051392 Z" id="Rectangle" fill="#FFFFFF" opacity="0.99000001"></path>
                            <g id="controllor" transform="translate(47.852232, 157.342257)">
                                <g id="Group-7">
                                    <rect id="Rectangle-2" fill="#EEEEEE" x="0" y="7.61333502" width="188.675205" height="12.6888917" rx="5"></rect>
                                    <ellipse id="Oval-3" fill="#959595" cx="145.621802" cy="12.6888917" rx="12.6627654" ry="12.6888917"></ellipse>
                                </g>
                                <g id="Group-6" transform="translate(0.000000, 31.722229)">
                                    <rect id="Rectangle-2" fill="#EEEEEE" x="0" y="6.34444585" width="188.675205" height="12.6888917" rx="5"></rect>
                                    <ellipse id="Oval-3" fill="#959595" cx="82.3079752" cy="12.6888917" rx="12.6627654" ry="12.6888917"></ellipse>
                                </g>
                            </g>
                            <g id="picker" transform="translate(40.520849, 31.722229)">
                                <mask id="mask-4" fill="white">
                                    <use xlink:href="#path-3"></use>
                                </mask>
                                <use id="Mask" fill="#D8D8D8" xlink:href="#path-3"></use>
                                <g mask="url(#mask-4)" id="Group-8">
                                    <g>
                                        <rect id="Rectangle-2" fill="#6CAE83" x="50.6510617" y="0" width="50.6510617" height="50.7555668"></rect>
                                        <rect id="Rectangle-2" fill="#64B6AC" x="101.302123" y="0" width="50.6510617" height="50.7555668"></rect>
                                        <rect id="Rectangle-2" fill="#B8EA7C" x="151.953185" y="0" width="50.6510617" height="50.7555668"></rect>
                                        <rect id="Rectangle-2" fill="#3F7644" x="0" y="0" width="50.6510617" height="50.7555668"></rect>
                                    </g>
                                    <g transform="translate(0.000000, 50.755567)">
                                        <rect id="Rectangle-2" fill="#7ED321" x="50.6510617" y="0" width="50.6510617" height="50.7555668"></rect>
                                        <rect id="Rectangle-2" fill="#7FEFBD" x="101.302123" y="0" width="50.6510617" height="50.7555668"></rect>
                                        <rect id="Rectangle-2" fill="#C2F9BB" x="151.953185" y="0" width="50.6510617" height="50.7555668"></rect>
                                        <rect id="Rectangle-2" fill="#62C370" x="0" y="0" width="50.6510617" height="50.7555668"></rect>
                                    </g>
                                </g>
                            </g>
                        </g>
                    </g>
                </g>
            </g>
        </g>
    </g>
</svg>