<?xml version="1.0" encoding="UTF-8" standalone="no"?>
<svg width="419px" height="419px" viewBox="0 0 419 419" version="1.1" xmlns="http://www.w3.org/2000/svg" xmlns:xlink="http://www.w3.org/1999/xlink">
    <!-- Generator: Sketch 41 (35326) - http://www.bohemiancoding.com/sketch -->
    <title>FontSheet</title>
    <desc>Created with Sketch.</desc>
    <defs>
        <circle id="path-1" cx="199.5" cy="199.5" r="199.5"></circle>
    </defs>
    <g id="Page-1" stroke="none" stroke-width="1" fill="none" fill-rule="evenodd">
        <g id="FontSheet">
            <circle id="Oval-2" fill="#50514F" cx="209.5" cy="209.5" r="209.5"></circle>
            <g id="fontSection" transform="translate(10.000000, 10.000000)">
                <mask id="mask-2" fill="white">
                    <use xlink:href="#path-1"></use>
                </mask>
                <use id="Mask" fill="#FF6E6E" xlink:href="#path-1"></use>
                <g mask="url(#mask-2)">
                    <g transform="translate(47.000000, 93.000000)">
                        <rect id="Rectangle" fill="#FFDFCA" opacity="0.99000001" x="0" y="0" width="297" height="342" rx="10"></rect>
                        <g id="list" stroke-width="1" fill="none" transform="translate(26.000000, 27.000000)">
                            <g id="Group-2">
                                <g id="type">
                                    <path d="M0,9.99386839 C0,4.47440729 4.47496597,0 9.99339974,0 L234.292315,0 C239.811517,0 244.285714,4.4726944 244.285714,9.99386839 L244.285714,47.0061316 C244.285714,52.5255927 239.810748,57 234.292315,57 L9.99339974,57 C4.47419746,57 0,52.5273056 0,47.0061316 L0,9.99386839 Z" id="Rectangle" fill="#FFFFFF" opacity="0.99000001"></path>
                                    <rect id="Rectangle-2" fill="#DDDDDD" x="10" y="8" width="41" height="41" rx="5"></rect>
                                    <rect id="Rectangle-2" fill="#EEEEEE" x="62" y="9" width="149" height="7" rx="3.5"></rect>
                                    <rect id="Rectangle-2" fill="#EEEEEE" x="62" y="25" width="75" height="7" rx="3.5"></rect>
                                    <rect id="Rectangle-2" fill="#EEEEEE" x="62" y="41" width="60.1428571" height="7" rx="3.5"></rect>
                                </g>
                                <text id="F" font-family="Montserrat-Regular, Montserrat" font-size="40" font-weight="normal" letter-spacing="3.33333325" fill="#555555">
                                    <tspan x="17.5066667" y="43.490071">F</tspan>
                                </text>
                            </g>
                            <g id="Group-5" transform="translate(0.000000, 67.000000)">
                                <g id="type" transform="translate(0.000000, 10.000000)">
                                    <path d="M0,9.99386839 C0,4.47440729 4.47496597,0 9.99339974,0 L234.292315,0 C239.811517,0 244.285714,4.4726944 244.285714,9.99386839 L244.285714,47.0061316 C244.285714,52.5255927 239.810748,57 234.292315,57 L9.99339974,57 C4.47419746,57 0,52.5273056 0,47.0061316 L0,9.99386839 Z" id="Rectangle" fill="#FFFFFF" opacity="0.99000001"></path>
                                    <rect id="Rectangle-2" fill="#DDDDDD" x="10" y="8" width="41" height="41" rx="5"></rect>
                                    <rect id="Rectangle-2" fill="#EEEEEE" x="62" y="9" width="149" height="7" rx="3.5"></rect>
                                    <rect id="Rectangle-2" fill="#EEEEEE" x="62" y="25" width="75" height="7" rx="3.5"></rect>
                                    <rect id="Rectangle-2" fill="#EEEEEE" x="62" y="41" width="60.1428571" height="7" rx="3.5"></rect>
                                </g>
                                <text id="F" font-family="STBaoli-SC-Regular, Baoli SC" font-size="50" font-weight="normal" letter-spacing="4.16666651" fill="#555555">
                                    <tspan x="14.2833335" y="53">F</tspan>
                                </text>
                            </g>
                            <g id="Group-4" transform="translate(0.000000, 154.000000)">
                                <g id="type">
                                    <path d="M0,9.99386839 C0,4.47440729 4.47496597,0 9.99339974,0 L234.292315,0 C239.811517,0 244.285714,4.4726944 244.285714,9.99386839 L244.285714,47.0061316 C244.285714,52.5255927 239.810748,57 234.292315,57 L9.99339974,57 C4.47419746,57 0,52.5273056 0,47.0061316 L0,9.99386839 Z" id="Rectangle" fill="#FFFFFF" opacity="0.99000001"></path>
                                    <rect id="Rectangle-2" fill="#DDDDDD" x="10" y="8" width="41" height="41" rx="5"></rect>
                                    <rect id="Rectangle-2" fill="#EEEEEE" x="62" y="9" width="149" height="7" rx="3.5"></rect>
                                    <rect id="Rectangle-2" fill="#EEEEEE" x="62" y="25" width="75" height="7" rx="3.5"></rect>
                                    <rect id="Rectangle-2" fill="#EEEEEE" x="62" y="41" width="60.1428571" height="7" rx="3.5"></rect>
                                </g>
                                <text id="F" font-family="Barrio-Regular, Barrio" font-size="40" font-weight="normal" letter-spacing="3.33333325" fill="#555555">
                                    <tspan x="19.6266667" y="44">F</tspan>
                                </text>
                            </g>
                            <g id="Group-3" transform="translate(0.000000, 231.000000)">
                                <g id="type">
                                    <path d="M0,9.99386839 C0,4.47440729 4.47496597,0 9.99339974,0 L234.292315,0 C239.811517,0 244.285714,4.4726944 244.285714,9.99386839 L244.285714,47.0061316 C244.285714,52.5255927 239.810748,57 234.292315,57 L9.99339974,57 C4.47419746,57 0,52.5273056 0,47.0061316 L0,9.99386839 Z" id="Rectangle" fill="#FFFFFF" opacity="0.99000001"></path>
                                    <rect id="Rectangle-2" fill="#DDDDDD" x="10" y="8" width="41" height="41" rx="5"></rect>
                                    <rect id="Rectangle-2" fill="#EEEEEE" x="62" y="9" width="149" height="7" rx="3.5"></rect>
                                    <rect id="Rectangle-2" fill="#EEEEEE" x="62" y="25" width="75" height="7" rx="3.5"></rect>
                                    <rect id="Rectangle-2" fill="#EEEEEE" x="62" y="41" width="60.1428571" height="7" rx="3.5"></rect>
                                </g>
                                <text id="F" font-family="Pacifico-Regular, Pacifico" font-size="32" font-weight="normal" letter-spacing="2.66666675" fill="#555555">
                                    <tspan x="12.8333333" y="42">F</tspan>
                                </text>
                            </g>
                        </g>
                        <g id="Group" stroke-width="1" fill="none" transform="translate(232.000000, 16.000000)">
                            <circle id="Oval" fill="#A9DA82" cx="25.5" cy="25.5" r="25.5"></circle>
                            <path d="M19.5142594,10.1554877 L31.6721346,10.1554877 C32.2242872,10.1554877 32.6718953,10.6111068 32.6718953,11.1509779 L32.6718953,34.030667" id="Path-2" stroke="#FFFFFF" stroke-width="4" stroke-linecap="round" stroke-linejoin="round" transform="translate(26.093077, 22.093077) scale(1, -1) rotate(-45.000000) translate(-26.093077, -22.093077) "></path>
                        </g>
                    </g>
                </g>
            </g>
        </g>
    </g>
</svg>