<?xml version="1.0" encoding="UTF-8" standalone="no"?>
<svg width="419px" height="419px" viewBox="0 0 419 419" version="1.1" xmlns="http://www.w3.org/2000/svg" xmlns:xlink="http://www.w3.org/1999/xlink">
    <!-- Generator: Sketch 41 (35326) - http://www.bohemiancoding.com/sketch -->
    <title>ModePicker</title>
    <desc>Created with Sketch.</desc>
    <defs>
        <circle id="path-1" cx="199.5" cy="199.5" r="199.5"></circle>
        <rect id="path-3" x="12" y="0" width="2" height="6" rx="1"></rect>
        <mask id="mask-4" maskContentUnits="userSpaceOnUse" maskUnits="objectBoundingBox" x="0" y="0" width="2" height="6" fill="white">
            <use xlink:href="#path-3"></use>
        </mask>
        <rect id="path-5" x="19" y="3" width="2" height="6" rx="1"></rect>
        <mask id="mask-6" maskContentUnits="userSpaceOnUse" maskUnits="objectBoundingBox" x="0" y="0" width="2" height="6" fill="white">
            <use xlink:href="#path-5"></use>
        </mask>
        <rect id="path-7" x="13.8284271" y="5.82842712" width="2" height="6" rx="1"></rect>
        <mask id="mask-8" maskContentUnits="userSpaceOnUse" maskUnits="objectBoundingBox" x="0" y="0" width="2" height="6" fill="white">
            <use xlink:href="#path-7"></use>
        </mask>
        <rect id="path-9" x="4.82842712" y="3" width="2" height="6" rx="1"></rect>
        <mask id="mask-10" maskContentUnits="userSpaceOnUse" maskUnits="objectBoundingBox" x="0" y="0" width="2" height="6" fill="white">
            <use xlink:href="#path-9"></use>
        </mask>
        <rect id="path-11" x="22" y="9" width="2" height="6" rx="1"></rect>
        <mask id="mask-12" maskContentUnits="userSpaceOnUse" maskUnits="objectBoundingBox" x="0" y="0" width="2" height="6" fill="white">
            <use xlink:href="#path-11"></use>
        </mask>
        <rect id="path-13" x="2" y="9" width="2" height="6" rx="1"></rect>
        <mask id="mask-14" maskContentUnits="userSpaceOnUse" maskUnits="objectBoundingBox" x="0" y="0" width="2" height="6" fill="white">
            <use xlink:href="#path-13"></use>
        </mask>
    </defs>
    <g id="Page-1" stroke="none" stroke-width="1" fill="none" fill-rule="evenodd">
        <g id="ModePicker">
            <circle id="Oval-2" fill="#50514F" cx="209.5" cy="209.5" r="209.5"></circle>
            <g id="fontSection" transform="translate(10.000000, 10.000000)">
                <mask id="mask-2" fill="white">
                    <use xlink:href="#path-1"></use>
                </mask>
                <use id="Mask" fill="#FFE071" xlink:href="#path-1"></use>
                <g id="colorSection" mask="url(#mask-2)">
                    <g transform="translate(72.000000, 98.000000)">
                        <g id="pickbox" stroke-width="1" fill="none">
                            <path d="M0.742149418,9.99334379 C0.742149418,4.47417242 5.21836869,0 10.7480613,0 L243.991546,0 C249.517658,0 253.997458,4.47379533 253.997458,9.99334379 L253.997458,291.006656 C253.997458,296.525828 249.521238,301 243.991546,301 L10.7480613,301 C5.22194875,301 0.742149418,296.526205 0.742149418,291.006656 L0.742149418,9.99334379 Z" id="Rectangle" fill="#FFFFFF" opacity="0.99000001"></path>
                            <g id="controllor" transform="translate(44.000000, 94.000000)">
                                <g id="Group-7" transform="translate(0.000000, 51.531987)">
                                    <rect id="Rectangle-2" fill="#EEEEEE" x="0" y="5.86994541" width="188.675205" height="9.02356902" rx="4.51178451"></rect>
                                    <circle id="Oval-3" fill="#959595" cx="84" cy="10" r="10"></circle>
                                </g>
                                <g id="Group-6" transform="translate(0.000000, 101.063973)">
                                    <rect id="Rectangle-2" fill="#EEEEEE" x="0" y="5.7249545" width="188.675205" height="9.02356902" rx="4.51178451"></rect>
                                    <circle id="Oval-3" fill="#959595" cx="45" cy="10" r="10"></circle>
                                </g>
                                <g id="Group-6">
                                    <rect id="Rectangle-2" fill="#EEEEEE" x="0" y="5.7249545" width="188.675205" height="9.02356902" rx="4.51178451"></rect>
                                    <circle id="Oval-3" fill="#959595" cx="156" cy="10" r="10"></circle>
                                </g>
                            </g>
                        </g>
                        <rect id="Rectangle-3" fill="#666666" x="1" y="0" width="253" height="67"></rect>
                        <g id="Group" stroke-width="1" fill="none" transform="translate(77.000000, 250.000000)">
                            <rect id="Rectangle-2" fill="#A9DA82" x="0" y="0" width="100" height="33" rx="16.5"></rect>
                            <path d="M43.5142594,2.15548771 L54.5117862,2.15548771 C55.0654369,2.15548771 55.5142594,2.61028101 55.5142594,3.14767834 L55.5142594,23.9300797" id="Path-2" stroke="#FFFFFF" stroke-width="4" stroke-linecap="round" stroke-linejoin="round" transform="translate(49.514259, 13.042784) scale(1, -1) rotate(-45.000000) translate(-49.514259, -13.042784) "></path>
                        </g>
                    </g>
                </g>
            </g>
            <text id="AA" font-family="ChalkboardSE-Regular, Chalkboard SE" font-size="20" font-weight="normal" letter-spacing="0.170000002" fill="#666666">
                <tspan x="89.9910663" y="313">A</tspan>
                <tspan x="103.067144" y="313" font-size="27.5" letter-spacing="0.187000006">A</tspan>
            </text>
            <g id="Group-3" transform="translate(91.000000, 199.000000)" stroke="#666666" stroke-width="2">
                <use id="Rectangle-4" mask="url(#mask-4)" stroke-linecap="round" stroke-linejoin="round" fill="#D8D8D8" xlink:href="#path-3"></use>
                <use id="Rectangle-4" mask="url(#mask-6)" stroke-linecap="round" stroke-linejoin="round" fill="#D8D8D8" transform="translate(20.000000, 6.000000) rotate(45.000000) translate(-20.000000, -6.000000) " xlink:href="#path-5"></use>
                <use id="Rectangle-4" mask="url(#mask-8)" stroke-linecap="round" stroke-linejoin="round" fill="#D8D8D8" transform="translate(14.828427, 8.828427) rotate(28.000000) translate(-14.828427, -8.828427) " xlink:href="#path-7"></use>
                <use id="Rectangle-4" mask="url(#mask-10)" stroke-linecap="round" stroke-linejoin="round" fill="#D8D8D8" transform="translate(5.828427, 6.000000) scale(1, -1) rotate(45.000000) translate(-5.828427, -6.000000) " xlink:href="#path-9"></use>
                <use id="Rectangle-4" mask="url(#mask-12)" stroke-linecap="round" stroke-linejoin="round" fill="#D8D8D8" transform="translate(23.000000, 12.000000) rotate(90.000000) translate(-23.000000, -12.000000) " xlink:href="#path-11"></use>
                <use id="Rectangle-4" mask="url(#mask-14)" stroke-linecap="round" stroke-linejoin="round" fill="#D8D8D8" transform="translate(3.000000, 12.000000) scale(-1, 1) rotate(90.000000) translate(-3.000000, -12.000000) " xlink:href="#path-13"></use>
                <g id="Group-2" transform="translate(0.500000, 0.000000)">
                    <circle id="Oval-4" cx="12.5" cy="12.5" r="12.5"></circle>
                    <circle id="Oval-4" cx="12.5" cy="13.5" r="3"></circle>
                </g>
            </g>
            <polyline id="Path-3" stroke="#666666" stroke-width="2" stroke-linecap="round" stroke-linejoin="round" points="87.9679287 264.185575 93.3253748 264.185575 97.656507 252.063873 100.188605 270.515958 105.675091 258.110268 108.175237 264.185575 116.836204 264.185575"></polyline>
        </g>
    </g>
</svg>